<?xml version="1.0" encoding="utf-8"?>
<!-- Svg Vector Icons : http://www.onlinewebfonts.com/icon -->
<!DOCTYPE svg PUBLIC "-//W3C//DTD SVG 1.1//EN" "http://www.w3.org/Graphics/SVG/1.1/DTD/svg11.dtd">
<svg version="1.1" xmlns="http://www.w3.org/2000/svg" xmlns:xlink="http://www.w3.org/1999/xlink" x="0px" y="0px" viewBox="0 0 1000 1000" enable-background="new 0 0 1000 1000" xml:space="preserve">
<metadata> Svg Vector Icons : http://www.onlinewebfonts.com/icon </metadata>
<g><path d="M619.4,820.3L359.1,146.6l-0.1,0c-6.6-17.2-23.2-29.4-42.7-29.4c-19.5,0-36.1,12.2-42.8,29.4l-0.1,0L13.1,820.3l0.1,0c-2,5.1-3.2,10.7-3.2,16.5c0,25.4,20.6,45.9,45.9,45.9c19.5,0,36.1-12.2,42.8-29.4l0.1,0l59.6-154.4h315.6l59.6,154.4l0.1,0c6.6,17.2,23.2,29.4,42.8,29.4c25.4,0,45.9-20.6,45.9-45.9C622.5,831,621.3,825.5,619.4,820.3L619.4,820.3z M193.9,607.2l122.3-316.6l122.3,316.6H193.9z M944.1,454.1H668.4c-25.4,0-45.9,20.6-45.9,45.9c0,25.4,20.6,45.9,45.9,45.9h275.6c25.4,0,45.9-20.6,45.9-45.9C990,474.6,969.4,454.1,944.1,454.1z"/></g>
</svg>