<?xml version="1.0" encoding="iso-8859-1"?>
<!-- Generator: Adobe Illustrator 18.1.1, SVG Export Plug-In . SVG Version: 6.00 Build 0)  -->
<svg version="1.1" id="Capa_1" xmlns="http://www.w3.org/2000/svg" xmlns:xlink="http://www.w3.org/1999/xlink" x="0px" y="0px"
	 viewBox="0 0 28 28" style="enable-background:new 0 0 28 28;" xml:space="preserve">
<g>
	<g>
		<path style="fill:#010002;" d="M24,11.518V0H0v24h11.518c1.614,2.411,4.361,3.999,7.482,4c4.971-0.002,8.998-4.029,9-9
			C27.999,15.879,26.411,13.132,24,11.518z M11.517,14c-0.412,0.616-0.743,1.289-0.994,2H4v2h6.058C10.022,18.329,10,18.661,10,19
			c0,1.055,0.19,2.061,0.523,3H2V2h20v8.523C21.061,10.19,20.055,10,19,10c-2.143,0-4.107,0.751-5.652,2H4v2H11.517z M19,25.883
			c-3.801-0.009-6.876-3.084-6.885-6.883c0.009-3.801,3.084-6.876,6.885-6.884c3.799,0.008,6.874,3.083,6.883,6.884
			C25.874,22.799,22.799,25.874,19,25.883z"/>
		<polygon style="fill:#010002;" points="20,8 4,8 4,10 19,10 20,10 		"/>
		<path style="fill:#010002;" d="M22.337,17.999c-0.063-0.212-0.146-0.413-0.245-0.606l1.188-1.187l-1.416-1.415l-1.165,1.166
			c-0.22-0.123-0.452-0.221-0.697-0.294V14h-2v1.662c-0.229,0.068-0.446,0.158-0.651,0.27l-1.142-1.14l-1.415,1.415l1.141,1.141
			C15.82,17.555,15.73,17.771,15.662,18H14v2h1.662c0.072,0.246,0.172,0.479,0.295,0.698l-1.165,1.163l1.413,1.416l1.188-1.188
			c0.192,0.102,0.395,0.182,0.605,0.245V24H20v-1.665c0.229-0.067,0.445-0.158,0.65-0.271l1.213,1.213l1.414-1.416l-1.213-1.211
			c0.111-0.205,0.201-0.422,0.271-0.65H24v-2.001C24,17.999,22.337,17.999,22.337,17.999z M18.999,20.499
			c-0.829-0.002-1.498-0.671-1.501-1.5c0.003-0.829,0.672-1.498,1.501-1.501c0.829,0.003,1.498,0.672,1.5,1.501
			C20.497,19.828,19.828,20.497,18.999,20.499z"/>
	</g>
</g>
<g>
</g>
<g>
</g>
<g>
</g>
<g>
</g>
<g>
</g>
<g>
</g>
<g>
</g>
<g>
</g>
<g>
</g>
<g>
</g>
<g>
</g>
<g>
</g>
<g>
</g>
<g>
</g>
<g>
</g>
</svg>
